<svg width="369" height="228" viewBox="0 0 369 228" fill="none" xmlns="http://www.w3.org/2000/svg">
<path d="M113.321 39.9307V34.1797H109.498V39.9307H103.747V43.7544H109.498V49.5049H113.321V43.7544H119.072V39.9307H113.321Z" fill="#EEF1FF"/>
<path d="M32.0449 10.1753V7.02539H29.9512V10.1753H26.8013V12.269H29.9512V15.4189H32.0449V12.269H35.1948V10.1753H32.0449Z" fill="#EEF1FF"/>
<path d="M166.091 9.21723V6.75293H164.452V9.21723H161.989V10.855H164.452V13.3187H166.091V10.855H168.555V9.21723H166.091Z" fill="#EEF1FF"/>
<path d="M216.209 10.4038V7.93945H214.571V10.4038H212.107V12.0415H214.571V14.5052H216.209V12.0415H218.673V10.4038H216.209Z" fill="#EEF1FF"/>
<path d="M27.4862 129.153V123.401H23.663V129.153H17.9126V132.976H23.663V138.727H27.4862V132.976H33.2378V129.153H27.4862Z" fill="#EEF1FF"/>
<path d="M82.2226 89.715V86.5645H80.129V89.715H76.979V91.8086H80.129V94.9586H82.2226V91.8086H85.3725V89.715H82.2226Z" fill="#EEF1FF"/>
<path d="M70.8641 46.6883V44.2246H69.2264V46.6883H66.7627V48.3266H69.2264V50.7903H70.8641V48.3266H73.3284V46.6883H70.8641Z" fill="#EEF1FF"/>
<path d="M149.48 101.334V98.8701H147.842V101.334H145.378V102.972H147.842V105.436H149.48V102.972H151.944V101.334H149.48Z" fill="#EEF1FF"/>
<path d="M117.32 10.1753V7.02539H115.226V10.1753H112.076V12.269H115.226V15.4189H117.32V12.269H120.47V10.1753H117.32Z" fill="#EEF1FF"/>
<path d="M248.898 29.121V23.6602H245.268V29.121H239.807V32.7512H245.268V38.2121H248.898V32.7512H254.359V29.121H248.898Z" fill="#EEF1FF"/>
<path d="M232.679 31.8225C234.152 31.8225 235.345 30.6291 235.345 29.1569C235.345 27.6847 234.152 26.4912 232.679 26.4912C231.207 26.4912 230.014 27.6847 230.014 29.1569C230.014 30.6291 231.207 31.8225 232.679 31.8225Z" fill="#CAD2F9"/>
<path d="M93.2181 78.6135C93.2181 79.3906 92.5879 80.0209 91.8107 80.0209C91.0335 80.0209 90.4033 79.3906 90.4033 78.6135C90.4033 77.8363 91.0335 77.2061 91.8107 77.2061C92.5879 77.2061 93.2181 77.8363 93.2181 78.6135Z" fill="#CAD2F9"/>
<path d="M97.2713 6.25311C97.2713 7.0303 96.6411 7.66052 95.864 7.66052C95.0868 7.66052 94.4565 7.0303 94.4565 6.25311C94.4565 5.47593 95.0868 4.8457 95.864 4.8457C96.6411 4.8457 97.2713 5.4752 97.2713 6.25311Z" fill="#CAD2F9"/>
<path d="M38.8434 42.5013C40.3156 42.5013 41.5091 41.3078 41.5091 39.8356C41.5091 38.3634 40.3156 37.1699 38.8434 37.1699C37.3712 37.1699 36.1777 38.3634 36.1777 39.8356C36.1777 41.3078 37.3712 42.5013 38.8434 42.5013Z" fill="#CAD2F9"/>
<path d="M165.174 26.299C165.174 27.0762 164.543 27.7064 163.766 27.7064C162.989 27.7064 162.359 27.0762 162.359 26.299C162.359 25.5218 162.989 24.8916 163.766 24.8916C164.543 24.8916 165.174 25.5218 165.174 26.299Z" fill="#CAD2F9"/>
<path d="M294.057 1.40741C294.057 2.18459 293.427 2.81482 292.65 2.81482C291.873 2.81482 291.243 2.18459 291.243 1.40741C291.243 0.630223 291.873 0 292.65 0C293.427 0 294.057 0.630223 294.057 1.40741Z" fill="#CAD2F9"/>
<path d="M323.323 66.4308C323.323 67.208 322.693 67.8382 321.916 67.8382C321.139 67.8382 320.508 67.208 320.508 66.4308C320.508 65.6537 321.139 65.0234 321.916 65.0234C322.693 65.0234 323.323 65.6537 323.323 66.4308Z" fill="#CAD2F9"/>
<path d="M29.684 130.559C29.684 131.336 29.0537 131.966 28.2765 131.966C27.4994 131.966 26.8691 131.336 26.8691 130.559C26.8691 129.782 27.4994 129.151 28.2765 129.151C29.0537 129.151 29.684 129.781 29.684 130.559Z" fill="#CAD2F9"/>
<path d="M184.5 227.491C286.397 227.491 369 220.674 369 212.265C369 203.856 286.397 197.039 184.5 197.039C82.6035 197.039 0 203.856 0 212.265C0 220.674 82.6035 227.491 184.5 227.491Z" fill="#EDF0FC"/>
<path d="M285.667 192.326C285.667 195.082 283.412 197.338 280.655 197.338H68.6916C65.9349 197.338 63.6797 195.082 63.6797 192.326V60.8157C63.6797 58.0589 65.9349 55.8037 68.6916 55.8037H280.655C283.412 55.8037 285.667 58.0589 285.667 60.8157V192.326Z" fill="#6E7FDD"/>
<path d="M275.674 64.0625H73.6738V181.86H275.674V64.0625Z" fill="#B3C9F9"/>
<path d="M49.0083 188.955V206.409C49.0083 209.53 51.5617 212.084 54.683 212.084H294.665C297.786 212.084 300.339 209.53 300.339 206.409V188.955H49.0083Z" fill="#B3C9F9"/>
<path d="M130.051 188.955V196.545C130.051 197.902 131.162 199.012 132.519 199.012H216.829C218.186 199.012 219.296 197.902 219.296 196.545V188.955H130.051Z" fill="white"/>
<path d="M211.571 97.2346C205.13 97.2346 199.173 99.2918 194.306 102.775C188.082 92.9544 177.126 86.4297 164.64 86.4297C145.332 86.4297 129.67 102.019 129.541 121.297C128.375 121.057 127.167 120.93 125.929 120.93C116.068 120.93 108.074 128.925 108.074 138.786C108.074 148.646 116.068 156.641 125.929 156.641H211.571C227.975 156.641 241.274 143.343 241.274 126.938C241.274 110.534 227.975 97.2346 211.571 97.2346Z" fill="white"/>
<path d="M191.254 116.831L186.371 111.949L174.674 123.646L162.976 111.949L158.093 116.831L169.791 128.529L158.093 140.226L162.976 145.109L174.674 133.411L186.371 145.109L191.254 140.226L179.557 128.529L191.254 116.831Z" fill="#EB725F"/>
<path opacity="0.1" d="M280.655 55.8037H253.601C258.769 79.9813 270.613 169.017 170.644 188.955H285.668V60.8157C285.667 58.0589 283.412 55.8037 280.655 55.8037Z" fill="#0046A0"/>
<path d="M65.8452 172.858C65.6706 171.493 65.6831 170.252 65.7539 169.049C65.8246 167.846 65.9643 166.688 66.1659 165.571C66.5761 163.342 67.1905 161.247 67.9858 159.272C69.5639 155.311 71.7994 151.783 74.5239 148.577C77.2529 145.373 80.4834 142.5 84.3696 140.058C86.3077 138.832 88.4286 137.729 90.7554 136.76C91.9215 136.277 93.153 135.837 94.4517 135.442C95.7503 135.047 97.109 134.691 98.6567 134.459C98.8367 135.827 98.8286 137.071 98.7597 138.275C98.6916 139.48 98.5555 140.64 98.3548 141.757C97.9473 143.989 97.3347 146.084 96.5376 148.06C94.955 152.018 92.7168 155.544 89.978 158.74C87.2338 161.933 84.0006 164.806 80.1099 167.245C78.1709 168.47 76.0518 169.575 73.7268 170.545C72.5616 171.028 71.3337 171.47 70.0377 171.868C68.7417 172.264 67.3866 172.623 65.8452 172.858Z" fill="#FFCF74"/>
<mask id="mask0_732_3848" style="mask-type:luminance" maskUnits="userSpaceOnUse" x="65" y="134" width="34" height="39">
<path d="M65.8452 172.858C65.6706 171.493 65.6831 170.252 65.7539 169.049C65.8246 167.846 65.9643 166.688 66.1659 165.571C66.5761 163.342 67.1905 161.247 67.9858 159.272C69.5639 155.311 71.7994 151.783 74.5239 148.577C77.2529 145.373 80.4834 142.5 84.3696 140.058C86.3077 138.832 88.4286 137.729 90.7554 136.76C91.9215 136.277 93.153 135.837 94.4517 135.442C95.7503 135.047 97.109 134.691 98.6567 134.459C98.8367 135.827 98.8286 137.071 98.7597 138.275C98.6916 139.48 98.5555 140.64 98.3548 141.757C97.9473 143.989 97.3347 146.084 96.5376 148.06C94.955 152.018 92.7168 155.544 89.978 158.74C87.2338 161.933 84.0006 164.806 80.1099 167.245C78.1709 168.47 76.0518 169.575 73.7268 170.545C72.5616 171.028 71.3337 171.47 70.0377 171.868C68.7417 172.264 67.3866 172.623 65.8452 172.858Z" fill="white"/>
</mask>
<g mask="url(#mask0_732_3848)">
<path d="M101.035 151.52L100.962 151.141L82.3094 153.911L89.8255 145.114L108.934 142.276L108.86 141.896L90.2079 144.666L96.2194 137.631L95.8683 137.401L87.2488 147.488L87.487 128.79L87.0482 128.785L86.8036 148.009L79.3502 156.732L79.5876 138.034L79.1487 138.03L78.9042 157.254L71.4507 165.976L71.689 147.278L71.2501 147.274L71.0056 166.498L67.7607 170.295L68.1118 170.526L74.0275 163.603L93.1358 160.765L93.0623 160.385L74.4099 163.155L81.9269 154.358L101.035 151.52Z" fill="#F9AB43"/>
</g>
<path opacity="0.1" d="M70.0376 171.867C71.3345 171.47 72.5615 171.028 73.7267 170.544C76.0509 169.574 78.1708 168.468 80.1098 167.244C84.0005 164.805 87.2337 161.932 89.9779 158.739C92.7176 155.543 94.9558 152.017 96.5375 148.059C97.3337 146.084 97.9472 143.988 98.3547 141.756C98.5554 140.639 98.6915 139.479 98.7596 138.274C98.8276 137.07 98.8366 135.826 98.6566 134.458L65.8442 172.858C67.3865 172.623 68.7416 172.264 70.0376 171.867Z" fill="#0046A0"/>
<path d="M65.4594 173.11C64.4483 171.639 63.6708 170.175 62.9669 168.714C62.262 167.252 61.644 165.794 61.1031 164.338C60.0292 161.427 59.2124 158.524 58.6204 155.628C57.4202 149.835 57.0423 144.07 57.2734 138.325C57.5116 132.579 58.375 126.855 60.057 121.157C60.8917 118.308 61.9557 115.467 63.2759 112.633C63.9395 111.216 64.6847 109.803 65.5141 108.391C66.3434 106.98 67.2471 105.572 68.3872 104.17C69.4056 105.641 70.1875 107.105 70.8941 108.567C71.6017 110.028 72.2241 111.486 72.766 112.943C73.8425 115.854 74.662 118.758 75.2531 121.654C76.4479 127.446 76.8232 133.211 76.5724 138.955C76.3154 144.7 75.4484 150.425 73.761 156.122C72.9245 158.971 71.8632 161.813 70.5457 164.647C69.8829 166.063 69.1432 167.477 68.3165 168.888C67.4916 170.301 66.5924 171.709 65.4594 173.11Z" fill="#FFCF74"/>
<mask id="mask1_732_3848" style="mask-type:luminance" maskUnits="userSpaceOnUse" x="57" y="104" width="20" height="70">
<path d="M65.4594 173.11C64.4483 171.639 63.6708 170.175 62.9669 168.714C62.262 167.252 61.644 165.794 61.1031 164.338C60.0292 161.427 59.2124 158.524 58.6204 155.628C57.4202 149.835 57.0423 144.07 57.2734 138.325C57.5116 132.579 58.375 126.855 60.057 121.157C60.8917 118.308 61.9557 115.467 63.2759 112.633C63.9395 111.216 64.6847 109.803 65.5141 108.391C66.3434 106.98 67.2471 105.572 68.3872 104.17C69.4056 105.641 70.1875 107.105 70.8941 108.567C71.6017 110.028 72.2241 111.486 72.766 112.943C73.8425 115.854 74.662 118.758 75.2531 121.654C76.4479 127.446 76.8232 133.211 76.5724 138.955C76.3154 144.7 75.4484 150.425 73.761 156.122C72.9245 158.971 71.8632 161.813 70.5457 164.647C69.8829 166.063 69.1432 167.477 68.3165 168.888C67.4916 170.301 66.5924 171.709 65.4594 173.11Z" fill="white"/>
</mask>
<g mask="url(#mask1_732_3848)">
<path d="M81.19 122.428L80.8881 122.035L67.1321 138.893L67.803 123.1L81.8948 105.831L81.593 105.439L67.8379 122.297L68.3744 109.667L67.9355 109.653L67.1662 127.761L55.5015 105.678L55.1334 105.993L67.1259 128.698L66.4604 144.358L54.7966 122.275L54.4285 122.59L66.421 145.295L65.7555 160.955L54.0917 138.871L53.7236 139.186L65.7161 161.891L65.4268 168.708L65.8648 168.722L66.3932 156.293L80.4851 139.024L80.1833 138.632L66.4273 155.49L67.0981 139.696L81.19 122.428Z" fill="#F9AB43"/>
</g>
<path opacity="0.1" d="M68.3174 168.889C69.1441 167.478 69.8839 166.063 70.5467 164.648C71.8641 161.814 72.9255 158.972 73.762 156.123C75.4502 150.425 76.3172 144.7 76.5734 138.956C76.8232 133.212 76.448 127.447 75.2541 121.655C74.6639 118.759 73.8435 115.855 72.7669 112.944C72.2251 111.487 71.6017 110.029 70.8951 108.568C70.1875 107.106 69.4056 105.642 68.3882 104.171L65.4595 173.111C66.5924 171.71 67.4917 170.301 68.3174 168.889Z" fill="#0046A0"/>
<path d="M65.0478 172.23C63.407 172.003 61.9436 171.64 60.5348 171.237C59.1259 170.833 57.7834 170.38 56.4981 169.883C53.9349 168.883 51.5659 167.737 49.368 166.461C44.9597 163.919 41.1739 160.906 37.8502 157.543C34.531 154.176 31.6865 150.45 29.4626 146.255C28.3458 144.161 27.4018 141.936 26.653 139.564C26.2813 138.375 25.9706 137.141 25.7243 135.858C25.478 134.574 25.2881 133.249 25.2773 131.787C26.9235 132.011 28.3906 132.37 29.8012 132.772C31.2118 133.174 32.5588 133.625 33.8441 134.121C36.4091 135.119 38.7799 136.264 40.9769 137.541C45.3816 140.086 49.1647 143.101 52.4741 146.475C55.779 149.852 58.6208 153.58 60.8411 157.777C61.957 159.872 62.9028 162.096 63.6533 164.467C64.0259 165.655 64.3403 166.886 64.5884 168.168C64.8383 169.449 65.0317 170.772 65.0478 172.23Z" fill="#FFCF74"/>
<mask id="mask2_732_3848" style="mask-type:luminance" maskUnits="userSpaceOnUse" x="25" y="131" width="41" height="42">
<path d="M65.0478 172.23C63.407 172.003 61.9436 171.64 60.5348 171.237C59.1259 170.833 57.7834 170.38 56.4981 169.883C53.9349 168.883 51.5659 167.737 49.368 166.461C44.9597 163.919 41.1739 160.906 37.8502 157.543C34.531 154.176 31.6865 150.45 29.4626 146.255C28.3458 144.161 27.4018 141.936 26.653 139.564C26.2813 138.375 25.9706 137.141 25.7243 135.858C25.478 134.574 25.2881 133.249 25.2773 131.787C26.9235 132.011 28.3906 132.37 29.8012 132.772C31.2118 133.174 32.5588 133.625 33.8441 134.121C36.4091 135.119 38.7799 136.264 40.9769 137.541C45.3816 140.086 49.1647 143.101 52.4741 146.475C55.779 149.852 58.6208 153.58 60.8411 157.777C61.957 159.872 62.9028 162.096 63.6533 164.467C64.0259 165.655 64.3403 166.886 64.5884 168.168C64.8383 169.449 65.0317 170.772 65.0478 172.23Z" fill="white"/>
</mask>
<g mask="url(#mask2_732_3848)">
<path d="M45.8278 134.463L45.3674 134.422L45.4713 152.028L36.3601 142.763L36.2535 124.727L35.7931 124.686L35.897 142.292L28.6111 134.882L28.2779 135.134L38.7254 145.757L16.6866 140.261L16.6069 140.655L39.2655 146.307L48.2997 155.493L26.2609 149.996L26.1812 150.391L48.8398 156.043L57.874 165.23L35.8352 159.732L35.7555 160.127L58.4141 165.779L62.3468 169.779L62.6791 169.527L55.5087 162.236L55.4021 144.2L54.9417 144.158L55.0456 161.764L45.9344 152.499L45.8278 134.463Z" fill="#F9AB43"/>
</g>
<path opacity="0.1" d="M64.5894 168.169C64.3413 166.887 64.0269 165.655 63.6543 164.468C62.9029 162.097 61.958 159.873 60.842 157.778C58.6218 153.58 55.7799 149.853 52.4751 146.475C49.1657 143.102 45.3817 140.087 40.9778 137.542C38.7809 136.265 36.4101 135.12 33.845 134.122C32.5598 133.625 31.2128 133.174 29.8022 132.772C28.3915 132.37 26.9245 132.011 25.2783 131.787L65.0488 172.23C65.0318 170.772 64.8383 169.449 64.5894 168.169Z" fill="#0046A0"/>
<path d="M86.8346 212.084H44.3996L40.0791 167.488H90.4351L86.8346 212.084Z" fill="#EB725F"/>
<path d="M92.74 167.488H37.7725V174.994H92.74V167.488Z" fill="#EB725F"/>
<path opacity="0.1" d="M40.8062 174.992H89.8294L88.7968 187.784L41.2164 179.229L40.8062 174.992Z" fill="#0046A0"/>
<path d="M308.104 119.303H254.288V211.799H334.579V145.992L308.104 119.303Z" fill="#F9AB43"/>
<path d="M308.104 119.303L334.686 145.884H308.104V119.303Z" fill="#FFCF74"/>
<path d="M287.469 175.51C287.469 171.796 288.944 168.9 291.892 166.824L293.312 165.841C294.659 164.968 295.597 164.249 296.125 163.685C296.653 163.121 296.918 162.419 296.918 161.582C296.918 159.47 295.151 158.414 291.619 158.414C289.981 158.414 288.287 158.633 286.539 159.07C284.793 159.506 283.135 160.126 281.569 160.926V152.515C284.919 150.987 288.67 150.222 292.82 150.222C297.298 150.222 300.85 151.159 303.47 153.035C306.092 154.91 307.403 157.504 307.403 160.817C307.403 162.675 306.985 164.176 306.147 165.323C305.309 166.47 303.888 167.753 301.887 169.173C300.54 170.157 299.555 170.913 298.937 171.44C298.318 171.969 297.853 172.559 297.545 173.215C297.235 173.871 297.081 174.672 297.081 175.617V176.656H287.468L287.469 175.51ZM288.588 188.59C287.623 187.625 287.14 186.432 287.14 185.012C287.14 183.556 287.622 182.354 288.588 181.408C289.552 180.461 290.764 179.987 292.219 179.987C293.64 179.987 294.851 180.47 295.852 181.434C296.852 182.4 297.354 183.592 297.354 185.012C297.354 186.432 296.852 187.625 295.852 188.59C294.851 189.554 293.64 190.037 292.219 190.037C290.764 190.037 289.552 189.554 288.588 188.59Z" fill="white"/>
</svg>
