<svg width="19" height="19" viewBox="0 0 19 19" fill="none" xmlns="http://www.w3.org/2000/svg">
<g clip-path="url(#clip0_987_2409)">
<path opacity="0.993" fill-rule="evenodd" clip-rule="evenodd" d="M8.67383 0.482422C8.8379 0.482422 9.00194 0.482422 9.16602 0.482422C9.16602 0.986327 9.16602 1.49024 9.16602 1.99414C9.04149 1.98314 8.92432 1.99486 8.81445 2.0293C8.71823 2.02583 8.62447 2.03755 8.5332 2.06445C8.57898 1.54665 8.59068 1.03102 8.56836 0.517578C8.61375 0.525921 8.6489 0.514202 8.67383 0.482422Z" fill="#FC3C53"/>
<path opacity="0.998" fill-rule="evenodd" clip-rule="evenodd" d="M9.16602 0.482422C9.54103 0.482422 9.916 0.482422 10.291 0.482422C10.4259 0.513277 10.5665 0.536715 10.7129 0.552734C10.7129 1.06836 10.7129 1.58398 10.7129 2.09961C10.4687 2.05107 10.2226 2.03349 9.97461 2.04688C9.31128 2.70435 8.65502 3.36645 8.00586 4.0332C7.42329 4.21327 6.87253 4.45937 6.35352 4.77148C7.22356 3.84866 8.11418 2.94046 9.02539 2.04688C8.95603 2.02946 8.88571 2.0236 8.81445 2.0293C8.92432 1.99486 9.04149 1.98314 9.16602 1.99414C9.16602 1.49024 9.16602 0.986327 9.16602 0.482422Z" fill="#FB253B"/>
<path opacity="0.993" fill-rule="evenodd" clip-rule="evenodd" d="M8.56836 0.517578C8.59068 1.03102 8.57898 1.54665 8.5332 2.06445C8.31432 2.07941 8.10338 2.11456 7.90039 2.16992C7.86523 2.16992 7.83008 2.16992 7.79492 2.16992C7.79492 1.6543 7.79492 1.13867 7.79492 0.623047C8.05075 0.574779 8.30859 0.539623 8.56836 0.517578Z" fill="#FC3B52"/>
<path opacity="0.997" fill-rule="evenodd" clip-rule="evenodd" d="M10.7129 0.552734C10.9651 0.573261 11.2112 0.620136 11.4512 0.693359C11.4401 1.22345 11.4518 1.75079 11.4863 2.27539C11.4746 2.27539 11.4629 2.27539 11.4512 2.27539C11.2613 2.19483 11.0621 2.14795 10.8535 2.13477C10.811 2.10896 10.7642 2.09724 10.7129 2.09961C10.7129 1.58398 10.7129 1.06836 10.7129 0.552734Z" fill="#FB243A"/>
<path opacity="0.994" fill-rule="evenodd" clip-rule="evenodd" d="M7.79492 0.623047C7.79492 1.13867 7.79492 1.6543 7.79492 2.16992C7.53765 2.24011 7.27985 2.31042 7.02148 2.38086C7.01037 1.85077 7.02208 1.32343 7.05664 0.798828C7.29799 0.723848 7.54408 0.665254 7.79492 0.623047Z" fill="#FD4158"/>
<path opacity="0.993" fill-rule="evenodd" clip-rule="evenodd" d="M11.4512 0.693359C11.7574 0.740934 12.0504 0.822965 12.3301 0.939453C12.3301 1.47851 12.3301 2.01758 12.3301 2.55664C12.2832 2.54492 12.2363 2.5332 12.1895 2.52148C11.96 2.42546 11.7256 2.34343 11.4863 2.27539C11.4518 1.75079 11.4401 1.22345 11.4512 0.693359Z" fill="#FB1E34"/>
<path opacity="0.995" fill-rule="evenodd" clip-rule="evenodd" d="M7.05664 0.798828C7.02208 1.32343 7.01038 1.85077 7.02148 2.38086C6.67973 2.52231 6.33988 2.67465 6.00195 2.83789C6.00195 2.28711 6.00195 1.73633 6.00195 1.18555C6.33506 1.01582 6.68662 0.886909 7.05664 0.798828Z" fill="#FD485F"/>
<path opacity="0.993" fill-rule="evenodd" clip-rule="evenodd" d="M12.3301 0.939453C12.6157 1.01109 12.8853 1.11656 13.1387 1.25586C13.1037 1.81219 13.0919 2.37469 13.1035 2.94336C13.0332 2.9082 12.9629 2.87305 12.8926 2.83789C12.7051 2.74414 12.5176 2.65039 12.3301 2.55664C12.3301 2.01758 12.3301 1.47851 12.3301 0.939453Z" fill="#FA182E"/>
<path opacity="0.993" fill-rule="evenodd" clip-rule="evenodd" d="M6.00195 1.18555C6.00195 1.73633 6.00195 2.28711 6.00195 2.83789C5.78409 2.97609 5.56141 3.10499 5.33398 3.22461C5.33398 2.65039 5.33398 2.07617 5.33398 1.50195C5.37789 1.44443 5.4365 1.40342 5.50977 1.37891C5.67103 1.30402 5.83507 1.23957 6.00195 1.18555Z" fill="#FE4E66"/>
<path opacity="0.994" fill-rule="evenodd" clip-rule="evenodd" d="M5.33398 1.50195C5.33398 2.07617 5.33398 2.65039 5.33398 3.22461C5.05945 3.42667 4.78991 3.63761 4.52539 3.85742C4.52539 3.22461 4.52539 2.5918 4.52539 1.95898C4.77753 1.78006 5.04707 1.62772 5.33398 1.50195Z" fill="#FE546B"/>
<path opacity="0.993" fill-rule="evenodd" clip-rule="evenodd" d="M13.1387 1.25586C13.587 1.41541 13.9971 1.63807 14.3692 1.92383C14.3341 2.53878 14.3224 3.15988 14.334 3.78711C14.2872 3.75195 14.2403 3.7168 14.1934 3.68164C14.042 3.54729 13.878 3.43011 13.7012 3.33008C13.5123 3.18851 13.3131 3.0596 13.1036 2.94336C13.092 2.37469 13.1037 1.81219 13.1387 1.25586Z" fill="#FA1025"/>
<path fill-rule="evenodd" clip-rule="evenodd" d="M10.7129 2.09955C10.7642 2.09718 10.811 2.1089 10.8535 2.13471C10.3098 2.69599 9.75903 3.25263 9.20117 3.80463C9.22072 3.81808 9.23243 3.83566 9.23633 3.85737C8.81871 3.8668 8.40857 3.92539 8.00586 4.03315C8.65502 3.3664 9.31128 2.70429 9.97461 2.04682C10.2226 2.03344 10.4687 2.05101 10.7129 2.09955Z" fill="#FC3047"/>
<path fill-rule="evenodd" clip-rule="evenodd" d="M8.81445 2.02921C8.88571 2.02351 8.95603 2.02937 9.02539 2.04679C8.11418 2.94037 7.22356 3.84857 6.35352 4.77139C6.05114 5.00321 5.75814 5.24931 5.47461 5.50968C5.33398 5.35734 5.19336 5.20498 5.05273 5.05264C6.03725 4.10343 6.98647 3.14249 7.90039 2.16983C8.10338 2.11448 8.31432 2.07932 8.5332 2.06436C8.62447 2.03746 8.71823 2.02574 8.81445 2.02921Z" fill="#FB253B"/>
<path opacity="0.992" fill-rule="evenodd" clip-rule="evenodd" d="M4.52539 1.95898C4.52539 2.5918 4.52539 3.22461 4.52539 3.85742C4.40909 3.96189 4.29192 4.06734 4.17383 4.17383C4.16212 4.17383 4.15038 4.17383 4.13867 4.17383C3.80868 3.80863 3.45712 3.46879 3.08398 3.1543C3.51766 2.69753 3.99813 2.29909 4.52539 1.95898Z" fill="#FE5B72"/>
<path opacity="0.994" fill-rule="evenodd" clip-rule="evenodd" d="M10.8535 2.13477C11.0621 2.14795 11.2613 2.19483 11.4512 2.27539C10.9544 2.78979 10.4504 3.29956 9.93945 3.80469C9.99423 3.81207 10.0411 3.82965 10.0801 3.85742C9.79732 3.83735 9.51607 3.83735 9.23633 3.85742C9.23243 3.83572 9.22072 3.81814 9.20117 3.80469C9.75903 3.25269 10.3098 2.69604 10.8535 2.13477Z" fill="#FC364C"/>
<path opacity="0.988" fill-rule="evenodd" clip-rule="evenodd" d="M14.3692 1.92383C14.8648 2.2024 15.3043 2.55396 15.6876 2.97852C15.717 3.11192 15.7053 3.24083 15.6524 3.36523C15.3816 3.64188 15.1062 3.91141 14.8262 4.17383C14.6622 4.04491 14.4981 3.91602 14.334 3.78711C14.3224 3.15988 14.3341 2.53878 14.3692 1.92383Z" fill="#F9081D"/>
<path fill-rule="evenodd" clip-rule="evenodd" d="M7.79492 2.16992C7.83008 2.16992 7.86523 2.16992 7.90039 2.16992C6.98647 3.14258 6.03725 4.10352 5.05273 5.05273C5.02929 5.04103 5.00587 5.02929 4.98242 5.01758C4.71288 4.73633 4.44337 4.45508 4.17383 4.17383C4.29192 4.06734 4.40909 3.96189 4.52539 3.85742C4.78991 3.63761 5.05945 3.42667 5.33398 3.22461C5.56141 3.10499 5.78409 2.97609 6.00195 2.83789C6.33987 2.67465 6.67973 2.52231 7.02148 2.38086C7.27985 2.31042 7.53765 2.24011 7.79492 2.16992Z" fill="#FA1E34"/>
<path fill-rule="evenodd" clip-rule="evenodd" d="M11.4512 2.27539C11.4629 2.27539 11.4746 2.27539 11.4863 2.27539C11.7256 2.34343 11.96 2.42546 12.1895 2.52148C11.7278 3.00073 11.259 3.47534 10.7832 3.94531C10.8154 3.9551 10.8388 3.97268 10.8535 3.99805C10.5946 3.951 10.3368 3.90412 10.0801 3.85742C10.0411 3.82965 9.99423 3.81207 9.93945 3.80469C10.4504 3.29956 10.9544 2.78979 11.4512 2.27539Z" fill="#FC3B52"/>
<path fill-rule="evenodd" clip-rule="evenodd" d="M12.1895 2.52148C12.2363 2.5332 12.2832 2.54492 12.3301 2.55664C12.5176 2.65039 12.7051 2.74414 12.8926 2.83789C12.4363 3.27074 11.991 3.71606 11.5566 4.17383C11.6158 4.19668 11.6627 4.23184 11.6973 4.2793C11.4181 4.1784 11.1368 4.08467 10.8535 3.99805C10.8388 3.97268 10.8154 3.9551 10.7832 3.94531C11.259 3.47534 11.7278 3.00073 12.1895 2.52148Z" fill="#FC4158"/>
<path fill-rule="evenodd" clip-rule="evenodd" d="M12.8926 2.83789C12.9629 2.87305 13.0332 2.9082 13.1035 2.94336C13.313 3.0596 13.5122 3.18851 13.7012 3.33008C13.2589 3.71951 12.8312 4.12967 12.418 4.56055C12.4017 4.58143 12.3958 4.60488 12.4004 4.63086C12.1647 4.51298 11.9303 4.3958 11.6973 4.2793C11.6627 4.23184 11.6158 4.19668 11.5566 4.17383C11.991 3.71606 12.4363 3.27074 12.8926 2.83789Z" fill="#FD485F"/>
<path opacity="0.988" fill-rule="evenodd" clip-rule="evenodd" d="M3.08398 3.1543C3.45712 3.46879 3.80868 3.80863 4.13867 4.17383C3.91846 4.45884 3.68994 4.74009 3.45312 5.01758C3.2472 5.33627 3.04212 5.65268 2.83789 5.9668C2.07617 6.71679 1.31445 7.46681 0.552734 8.2168C0.838318 6.23936 1.68207 4.55186 3.08398 3.1543Z" fill="#FED633"/>
<path fill-rule="evenodd" clip-rule="evenodd" d="M13.7012 3.33008C13.8779 3.43011 14.042 3.54729 14.1934 3.68164C13.7727 4.08471 13.3567 4.49484 12.9453 4.91211C12.9288 4.94997 12.9347 4.98513 12.9629 5.01758C12.7629 4.90592 12.5754 4.77704 12.4004 4.63086C12.3958 4.60488 12.4016 4.58143 12.418 4.56055C12.8312 4.12967 13.2589 3.71951 13.7012 3.33008Z" fill="#FD4E65"/>
<path fill-rule="evenodd" clip-rule="evenodd" d="M14.1934 3.68164C14.2402 3.7168 14.2871 3.75195 14.334 3.78711C14.4981 3.91602 14.6621 4.04491 14.8262 4.17383C14.4583 4.55932 14.0833 4.94016 13.7012 5.31641C13.599 5.36274 13.4936 5.37448 13.3848 5.35156C13.2275 5.2584 13.0868 5.14706 12.9629 5.01758C12.9347 4.98513 12.9288 4.94997 12.9453 4.91211C13.3567 4.49484 13.7727 4.08471 14.1934 3.68164Z" fill="#FD546B"/>
<path fill-rule="evenodd" clip-rule="evenodd" d="M4.13867 4.17383C4.15037 4.17383 4.16212 4.17383 4.17382 4.17383C4.44337 4.45508 4.71287 4.73633 4.98242 5.01758C4.0596 5.88762 3.15139 6.77824 2.25781 7.68945C2.24148 7.66857 2.23562 7.64512 2.24023 7.61914C2.27937 7.37857 2.34382 7.14418 2.43359 6.91602C2.56879 6.59887 2.70355 6.28246 2.83788 5.9668C3.04212 5.65268 3.24719 5.33627 3.45312 5.01758C3.68994 4.74009 3.91845 4.45884 4.13867 4.17383Z" fill="#F3B931"/>
<path fill-rule="evenodd" clip-rule="evenodd" d="M4.98241 5.01758C5.00586 5.02929 5.02927 5.04103 5.05272 5.05273C5.19335 5.20507 5.33397 5.35743 5.4746 5.50977C4.86548 6.15376 4.40845 6.89204 4.1035 7.72461C3.41332 8.39722 2.72777 9.07689 2.04686 9.76367C2.04015 9.68605 2.02257 9.61573 1.99413 9.55273C1.99148 9.17586 2.01492 8.80085 2.06444 8.42773C2.08517 8.14606 2.14376 7.87655 2.24022 7.61914C2.23562 7.64512 2.24148 7.66857 2.2578 7.68945C3.15139 6.77824 4.05959 5.88762 4.98241 5.01758Z" fill="#F5BE31"/>
<path opacity="0.995" fill-rule="evenodd" clip-rule="evenodd" d="M2.83789 5.9668C2.70356 6.28246 2.56879 6.59887 2.43359 6.91602C2.34383 7.14418 2.27937 7.37857 2.24023 7.61914C2.14378 7.87655 2.08518 8.14606 2.06445 8.42773C1.54978 8.96584 1.02244 9.49318 0.482422 10.0098C0.482422 9.56444 0.482422 9.11915 0.482422 8.67383C0.515783 8.52768 0.539221 8.37535 0.552734 8.2168C1.31445 7.46681 2.07617 6.71679 2.83789 5.9668Z" fill="#FCD132"/>
<path opacity="0.997" fill-rule="evenodd" clip-rule="evenodd" d="M4.10352 7.72461C3.8803 8.47161 3.79826 9.23334 3.85742 10.0098C3.82923 9.95872 3.81165 9.90015 3.80469 9.83398C3.2832 10.3555 2.76172 10.877 2.24023 11.3984C2.30069 11.5523 2.34756 11.7105 2.38086 11.873C1.96881 12.2499 1.5821 12.6483 1.2207 13.0684C1.01323 12.6453 0.860889 12.1999 0.763672 11.7324C1.18432 11.3294 1.60034 10.9192 2.01172 10.502C2.0103 10.186 2.00444 9.86956 1.99414 9.55273C2.02259 9.61573 2.04016 9.68605 2.04688 9.76367C2.72778 9.07689 3.41333 8.39722 4.10352 7.72461Z" fill="#F7C431"/>
<path opacity="0.996" fill-rule="evenodd" clip-rule="evenodd" d="M14.9316 8.2168C14.8686 8.24524 14.7983 8.26282 14.7207 8.26954C14.2097 8.77466 13.7058 9.28443 13.209 9.79883C11.9668 9.79883 10.7246 9.79883 9.48243 9.79883C9.47656 9.32995 9.48243 8.86118 9.5 8.39258C9.53899 8.3112 9.60347 8.25846 9.69336 8.23438C11.4394 8.2168 13.1855 8.21093 14.9316 8.2168Z" fill="#7EADF4"/>
<path opacity="0.984" fill-rule="evenodd" clip-rule="evenodd" d="M14.9316 8.2168C15.5879 8.2168 16.2441 8.2168 16.9004 8.2168C16.8374 8.24524 16.7671 8.26282 16.6895 8.26953C16.1785 8.77466 15.6745 9.28442 15.1777 9.79883C14.5215 9.79883 13.8652 9.79883 13.209 9.79883C13.7058 9.28442 14.2097 8.77466 14.7207 8.26953C14.7983 8.26282 14.8686 8.24524 14.9316 8.2168Z" fill="#75A7F3"/>
<path opacity="0.985" fill-rule="evenodd" clip-rule="evenodd" d="M16.9004 8.2168C17.1699 8.2168 17.4394 8.2168 17.709 8.2168C17.1301 8.81322 16.5442 9.40504 15.9512 9.99219C15.9048 9.99904 15.8579 9.99317 15.8105 9.97461C15.6112 9.87498 15.4003 9.81641 15.1777 9.79883C15.6745 9.28442 16.1785 8.77466 16.6895 8.26953C16.7671 8.26282 16.8374 8.24524 16.9004 8.2168Z" fill="#6DA2F2"/>
<path opacity="0.995" fill-rule="evenodd" clip-rule="evenodd" d="M17.709 8.21678C17.8969 8.21095 18.0843 8.21682 18.2715 8.23436C18.3474 8.28119 18.4177 8.33392 18.4824 8.39256C18.4824 8.45117 18.4824 8.50974 18.4824 8.56834C17.8157 9.2175 17.1536 9.87377 16.4961 10.5371C16.4948 10.6099 16.5124 10.6803 16.5488 10.748C15.5833 11.696 14.6223 12.6511 13.666 13.6133C13.6451 13.6296 13.6217 13.6354 13.5957 13.6308C13.5488 13.5957 13.5019 13.5605 13.4551 13.5254C13.8004 13.1624 14.0992 12.764 14.3516 12.3301C14.4404 12.0634 14.376 11.8408 14.1582 11.6621C14.7353 11.1378 15.2978 10.5929 15.8457 10.0273C15.8262 10.0139 15.8144 9.99629 15.8105 9.97459C15.8579 9.99316 15.9048 9.99903 15.9512 9.99217C16.5442 9.40503 17.1301 8.81321 17.709 8.21678Z" fill="#679EF2"/>
<path opacity="0.995" fill-rule="evenodd" clip-rule="evenodd" d="M2.06445 8.42773C2.01493 8.80085 1.99149 9.17586 1.99414 9.55273C2.00444 9.86956 2.0103 10.186 2.01172 10.502C1.60034 10.9192 1.18432 11.3294 0.763672 11.7324C0.628244 11.2596 0.534494 10.7792 0.482422 10.291C0.482422 10.1973 0.482422 10.1035 0.482422 10.0098C1.02244 9.49318 1.54978 8.96584 2.06445 8.42773Z" fill="#FACB32"/>
<path fill-rule="evenodd" clip-rule="evenodd" d="M18.4824 8.56836C18.4824 8.90821 18.4824 9.24804 18.4824 9.58789C17.8986 10.1892 17.3068 10.7869 16.707 11.3809C16.7003 11.4585 16.6827 11.5288 16.6542 11.5918C16.6542 11.4746 16.6542 11.3574 16.6542 11.2402C16.6625 11.066 16.6273 10.9019 16.5488 10.748C16.5123 10.6803 16.4948 10.61 16.496 10.5371C17.1535 9.87378 17.8156 9.21752 18.4824 8.56836Z" fill="#609AF2"/>
<path opacity="0.994" fill-rule="evenodd" clip-rule="evenodd" d="M18.4824 9.58789C18.4824 9.79883 18.4824 10.0098 18.4824 10.2207C18.4498 10.4203 18.4147 10.6195 18.377 10.8184C18.3822 10.7814 18.3764 10.7462 18.3594 10.7129C17.6316 11.4465 16.8992 12.1731 16.1621 12.8926C16.356 12.4698 16.5201 12.0361 16.6543 11.5918C16.6827 11.5288 16.7003 11.4585 16.707 11.3809C17.3069 10.7869 17.8987 10.1892 18.4824 9.58789Z" fill="#5A96F2"/>
<path fill-rule="evenodd" clip-rule="evenodd" d="M11.7676 9.83398C11.2051 10.4082 10.6426 10.9824 10.0801 11.5566C9.93945 11.5566 9.79883 11.5566 9.6582 11.5566C9.57618 11.5449 9.52929 11.498 9.51758 11.416C9.51758 10.8887 9.51758 10.3613 9.51758 9.83398C10.2676 9.83398 11.0176 9.83398 11.7676 9.83398Z" fill="#4D8DF0"/>
<path fill-rule="evenodd" clip-rule="evenodd" d="M11.7676 9.83398C12.3066 9.83398 12.8457 9.83398 13.3848 9.83398C12.8223 10.4082 12.2598 10.9824 11.6973 11.5566C11.1582 11.5566 10.6191 11.5566 10.0801 11.5566C10.6426 10.9824 11.2051 10.4082 11.7676 9.83398Z" fill="#5392F1"/>
<path fill-rule="evenodd" clip-rule="evenodd" d="M13.3848 9.83399C13.8068 9.82812 14.2287 9.83399 14.6504 9.85157C14.0879 10.4141 13.5254 10.9766 12.9629 11.5391C12.5412 11.5566 12.1193 11.5625 11.6973 11.5566C12.2598 10.9824 12.8223 10.4082 13.3848 9.83399Z" fill="#5A96F2"/>
<path opacity="0.997" fill-rule="evenodd" clip-rule="evenodd" d="M9.48247 9.79883C10.7247 9.79883 11.9669 9.79883 13.209 9.79883C13.8653 9.79883 14.5215 9.79883 15.1778 9.79883C15.4003 9.81641 15.6113 9.87498 15.8106 9.97461C15.8145 9.9963 15.8262 10.0139 15.8458 10.0273C15.2978 10.5929 14.7353 11.1379 14.1583 11.6621C14.0886 11.6447 14.0183 11.6271 13.9473 11.6094C12.5117 11.6035 11.082 11.5859 9.65826 11.5566C9.79888 11.5566 9.93951 11.5566 10.0801 11.5566C10.6192 11.5566 11.1583 11.5566 11.6973 11.5566C12.1194 11.5625 12.5412 11.5566 12.9629 11.5391C13.5254 10.9766 14.0879 10.4141 14.6504 9.85156C14.2287 9.83398 13.8069 9.82811 13.3848 9.83398C12.8458 9.83398 12.3067 9.83398 11.7676 9.83398C11.0176 9.83398 10.2676 9.83398 9.51763 9.83398C9.51763 10.3613 9.51763 10.8887 9.51763 11.416C9.48262 10.8831 9.47087 10.3441 9.48247 9.79883Z" fill="#619AF2"/>
<path fill-rule="evenodd" clip-rule="evenodd" d="M3.85742 10.0098C3.92015 10.5653 4.04906 11.1044 4.24414 11.627C4.22245 11.6231 4.20487 11.6113 4.19141 11.5918C3.73125 12.0343 3.29179 12.4913 2.87305 12.9629C2.66843 12.6188 2.50436 12.2555 2.38086 11.873C2.34756 11.7105 2.30069 11.5523 2.24023 11.3984C2.76172 10.877 3.2832 10.3555 3.80469 9.83398C3.81165 9.90015 3.82923 9.95872 3.85742 10.0098Z" fill="#FACB31"/>
<path opacity="0.995" fill-rule="evenodd" clip-rule="evenodd" d="M18.377 10.8184C18.3134 11.354 18.1844 11.8696 17.9902 12.3652C17.0275 13.2928 16.09 14.242 15.1777 15.2129C15.0371 15.0957 14.9082 14.9668 14.791 14.8262C15.0597 14.5045 15.3234 14.1763 15.582 13.8418C15.794 13.5349 15.9873 13.2185 16.1621 12.8926C16.8992 12.1731 17.6316 11.4465 18.3594 10.7129C18.3764 10.7462 18.3822 10.7814 18.377 10.8184Z" fill="#5392F1"/>
<path fill-rule="evenodd" clip-rule="evenodd" d="M16.5488 10.748C16.6274 10.9019 16.6625 11.066 16.6543 11.2402C15.7402 12.1426 14.8262 13.0449 13.9121 13.9473C13.8887 13.9356 13.8652 13.9238 13.8418 13.9121C13.7598 13.8183 13.6777 13.7246 13.5957 13.6309C13.6217 13.6355 13.6451 13.6296 13.666 13.6133C14.6223 12.6511 15.5833 11.696 16.5488 10.748Z" fill="#6BA1F2"/>
<path fill-rule="evenodd" clip-rule="evenodd" d="M16.6543 11.2402C16.6543 11.3574 16.6543 11.4746 16.6543 11.5918C16.5201 12.0361 16.356 12.4698 16.1621 12.8926C15.9873 13.2185 15.794 13.5349 15.582 13.8418C15.3234 14.1763 15.0597 14.5045 14.791 14.8262C14.7793 14.8262 14.7676 14.8262 14.7559 14.8262C14.4746 14.5332 14.1934 14.2402 13.9121 13.9473C14.8262 13.0449 15.7402 12.1426 16.6543 11.2402Z" fill="#6FA4F2"/>
<path fill-rule="evenodd" clip-rule="evenodd" d="M4.24414 11.627C4.44836 12.0354 4.67101 12.4338 4.91211 12.8223C4.89042 12.8184 4.87284 12.8067 4.85938 12.7871C4.44921 13.1973 4.03907 13.6074 3.62891 14.0176C3.61193 14.0509 3.60607 14.0861 3.61133 14.123C3.42304 13.8876 3.24726 13.6415 3.08398 13.3848C2.99842 13.2522 2.92811 13.1115 2.87305 12.9629C3.29179 12.4913 3.73125 12.0343 4.19141 11.5918C4.20487 11.6113 4.22245 11.6231 4.24414 11.627Z" fill="#FCD132"/>
<path opacity="0.978" fill-rule="evenodd" clip-rule="evenodd" d="M17.9902 12.3652C17.5567 13.7136 16.8301 14.8738 15.8105 15.8457C15.5879 15.6465 15.377 15.4355 15.1777 15.2129C16.09 14.242 17.0275 13.2928 17.9902 12.3652Z" fill="#4D8DF0"/>
<path opacity="0.995" fill-rule="evenodd" clip-rule="evenodd" d="M2.38086 11.873C2.50436 12.2555 2.66843 12.6188 2.87305 12.9629C2.92811 13.1115 2.99842 13.2522 3.08398 13.3848C3.02117 13.4181 2.96257 13.4591 2.9082 13.5078C2.59082 13.8233 2.28613 14.1455 1.99414 14.4746C1.66491 14.05 1.40709 13.5812 1.2207 13.0684C1.5821 12.6483 1.96881 12.2499 2.38086 11.873Z" fill="#F4BD31"/>
<path fill-rule="evenodd" clip-rule="evenodd" d="M4.91211 12.8223C5.09728 13.0545 5.29651 13.2772 5.50977 13.4902C5.07619 13.9004 4.65431 14.3223 4.24414 14.7559C4.22069 14.7676 4.19728 14.7793 4.17383 14.791C3.98633 14.5684 3.79883 14.3457 3.61133 14.123C3.60607 14.0861 3.61194 14.0509 3.62891 14.0176C4.03908 13.6074 4.44921 13.1973 4.85938 12.7871C4.87284 12.8067 4.89042 12.8184 4.91211 12.8223Z" fill="#FED632"/>
<path opacity="0.995" fill-rule="evenodd" clip-rule="evenodd" d="M3.08398 13.3848C3.24726 13.6415 3.42304 13.8876 3.61133 14.123C3.79883 14.3457 3.98633 14.5684 4.17383 14.791C3.83398 15.1543 3.48242 15.5058 3.11914 15.8457C2.66858 15.4472 2.29358 14.9901 1.99414 14.4746C2.28613 14.1455 2.59082 13.8233 2.9082 13.5078C2.96257 13.4591 3.02117 13.4181 3.08398 13.3848Z" fill="#F2B630"/>
<path opacity="0.996" fill-rule="evenodd" clip-rule="evenodd" d="M13.4551 13.5254C13.5019 13.5605 13.5488 13.5957 13.5957 13.6309C13.6777 13.7246 13.7598 13.8183 13.8418 13.9121C12.8997 14.8718 11.9505 15.8269 10.9941 16.7773C11.015 16.7937 11.0385 16.7995 11.0645 16.7949C10.8938 16.8337 10.7181 16.8689 10.5371 16.9004C10.0817 16.9501 9.6247 16.9794 9.16602 16.9883C8.71359 17.4348 8.2683 17.886 7.83008 18.3418C7.37959 18.2732 6.946 18.156 6.5293 17.9902C6.95398 17.6184 7.36415 17.2258 7.75977 16.8125C7.44891 16.7116 7.14425 16.6003 6.8457 16.4785C7.33082 16.011 7.81127 15.5364 8.28711 15.0547C8.25491 15.0449 8.23149 15.0273 8.2168 15.002C10.2146 15.3787 11.9607 14.8865 13.4551 13.5254Z" fill="#289962"/>
<path fill-rule="evenodd" clip-rule="evenodd" d="M5.50976 13.4902C6.28337 14.2228 7.18573 14.7267 8.21679 15.002C8.23149 15.0273 8.2549 15.0449 8.28711 15.0547C7.81127 15.5364 7.33082 16.011 6.8457 16.4785C5.86737 16.1215 5.00604 15.5824 4.26171 14.8613C4.24473 14.828 4.2389 14.7928 4.24414 14.7559C4.6543 14.3223 5.07618 13.9004 5.50976 13.4902Z" fill="#289260"/>
<path fill-rule="evenodd" clip-rule="evenodd" d="M13.8418 13.9121C13.8652 13.9238 13.8887 13.9356 13.9121 13.9473C14.1934 14.2402 14.4746 14.5332 14.7559 14.8262C14.0481 15.5027 13.2395 16.03 12.3301 16.4082C11.9212 16.5774 11.4993 16.7063 11.0645 16.7949C11.0385 16.7995 11.015 16.7937 10.9941 16.7773C11.9505 15.8269 12.8997 14.8718 13.8418 13.9121Z" fill="#289D63"/>
<path opacity="0.995" fill-rule="evenodd" clip-rule="evenodd" d="M4.24414 14.7559C4.2389 14.7928 4.24474 14.828 4.26172 14.8613C5.00605 15.5824 5.86738 16.1215 6.8457 16.4785C7.14425 16.6003 7.44891 16.7116 7.75977 16.8125C7.36415 17.2258 6.95398 17.6184 6.5293 17.9902C5.21477 17.5502 4.07803 16.8354 3.11914 15.8457C3.48242 15.5058 3.83398 15.1543 4.17383 14.791C4.19728 14.7793 4.22069 14.7676 4.24414 14.7559Z" fill="#29A164"/>
<path opacity="0.994" fill-rule="evenodd" clip-rule="evenodd" d="M14.7559 14.8262C14.7676 14.8262 14.7793 14.8262 14.791 14.8262C14.9082 14.9668 15.0371 15.0957 15.1777 15.2129C15.377 15.4355 15.5879 15.6465 15.8105 15.8457C14.3053 17.3716 12.4772 18.2388 10.3262 18.4473C10.9941 17.7676 11.6621 17.0879 12.3301 16.4082C13.2395 16.03 14.0481 15.5027 14.7559 14.8262Z" fill="#28895E"/>
<path opacity="0.997" fill-rule="evenodd" clip-rule="evenodd" d="M12.3301 16.4082C11.6621 17.0879 10.9941 17.7676 10.3262 18.4473C10.2913 18.4412 10.2679 18.453 10.2559 18.4824C9.83398 18.4824 9.41211 18.4824 8.99023 18.4824C9.50587 17.9551 10.0215 17.4277 10.5371 16.9004C10.7181 16.8689 10.8938 16.8337 11.0645 16.7949C11.4993 16.7063 11.9212 16.5774 12.3301 16.4082Z" fill="#288C5E"/>
<path opacity="0.992" fill-rule="evenodd" clip-rule="evenodd" d="M10.5371 16.9004C10.0215 17.4277 9.50587 17.9551 8.99023 18.4824C8.88477 18.4824 8.7793 18.4824 8.67383 18.4824C8.39543 18.4392 8.11418 18.3924 7.83008 18.3418C8.2683 17.886 8.71359 17.4348 9.16602 16.9883C9.6247 16.9794 10.0817 16.9501 10.5371 16.9004Z" fill="#289260"/>
</g>
<defs>
<clipPath id="clip0_987_2409">
<rect width="18" height="18" fill="white" transform="translate(0.5 0.5)"/>
</clipPath>
</defs>
</svg>
