<svg width="12" height="12" viewBox="0 0 12 12" fill="none" xmlns="http://www.w3.org/2000/svg">
<g clip-path="url(#clip0_736_12198)">
<path d="M8.21479 3.80469C8.26385 3.80469 8.30463 3.84546 8.30463 3.89453C8.30457 3.91622 8.29773 3.93724 8.2851 3.95215H8.28412L6.54193 6.02832L6.53217 6.04004L6.54193 6.05078L8.28119 8.125V8.12598C8.29489 8.14314 8.30258 8.16283 8.30268 8.18359C8.30268 8.23385 8.26302 8.27344 8.21381 8.27344L7.33881 8.26953L6.01361 6.68945L5.99994 6.67383L5.98627 6.68945L4.66108 8.27051L3.7851 8.27441C3.73611 8.27441 3.69538 8.23451 3.69526 8.18555C3.69549 8.1642 3.70316 8.14343 3.71674 8.12695L5.45893 6.05273L5.46869 6.04102L5.45893 6.0293L3.71674 3.9541C3.70298 3.93684 3.69526 3.91639 3.69526 3.89551C3.6953 3.84529 3.73591 3.80664 3.7851 3.80664L4.66108 3.80957L5.98627 5.38965L5.99994 5.40625L6.01361 5.38965L7.33979 3.80762L8.21479 3.80469Z" fill="#1D2EB6" stroke="#1D2EB6" stroke-width="0.0357143"/>
<path d="M6 0.0136719C2.68661 0.0136719 0 2.70028 0 6.01367C0 9.32706 2.68661 12.0137 6 12.0137C9.31339 12.0137 12 9.32706 12 6.01367C12 2.70028 9.31339 0.0136719 6 0.0136719ZM6 10.9958C3.24911 10.9958 1.01786 8.76456 1.01786 6.01367C1.01786 3.26278 3.24911 1.03153 6 1.03153C8.75089 1.03153 10.9821 3.26278 10.9821 6.01367C10.9821 8.76456 8.75089 10.9958 6 10.9958Z" fill="#1D2EB6"/>
</g>
<defs>
<clipPath id="clip0_736_12198">
<rect width="12" height="12" fill="white"/>
</clipPath>
</defs>
</svg>
