<svg width="22" height="22" viewBox="0 0 22 22" fill="none" xmlns="http://www.w3.org/2000/svg">
<path d="M20.0357 2.94657H15.9107V1.37514C15.9107 1.2671 15.8223 1.17871 15.7143 1.17871H14.3393C14.2313 1.17871 14.1429 1.2671 14.1429 1.37514V2.94657H7.85716V1.37514C7.85716 1.2671 7.76877 1.17871 7.66073 1.17871H6.28573C6.1777 1.17871 6.0893 1.2671 6.0893 1.37514V2.94657H1.9643C1.5297 2.94657 1.17859 3.29768 1.17859 3.73228V20.0359C1.17859 20.4705 1.5297 20.8216 1.9643 20.8216H20.0357C20.4703 20.8216 20.8214 20.4705 20.8214 20.0359V3.73228C20.8214 3.29768 20.4703 2.94657 20.0357 2.94657ZM19.0536 19.0537H2.94645V9.72335H19.0536V19.0537ZM2.94645 8.05371V4.71443H6.0893V5.893C6.0893 6.00103 6.1777 6.08943 6.28573 6.08943H7.66073C7.76877 6.08943 7.85716 6.00103 7.85716 5.893V4.71443H14.1429V5.893C14.1429 6.00103 14.2313 6.08943 14.3393 6.08943H15.7143C15.8223 6.08943 15.9107 6.00103 15.9107 5.893V4.71443H19.0536V8.05371H2.94645Z" fill="#202F8F"/>
</svg>
