<svg width="18" height="18" viewBox="0 0 18 18" fill="none" xmlns="http://www.w3.org/2000/svg">
<path d="M10.0404 9.00028L15.3139 2.71434C15.4023 2.60988 15.3279 2.45117 15.1913 2.45117H13.5882C13.4938 2.45117 13.4034 2.49336 13.3411 2.56568L8.99178 7.75073L4.64245 2.56568C4.58218 2.49336 4.49178 2.45117 4.39535 2.45117H2.79222C2.65562 2.45117 2.58129 2.60988 2.66968 2.71434L7.94312 9.00028L2.66968 15.2862C2.64988 15.3095 2.63717 15.338 2.63308 15.3683C2.62898 15.3986 2.63366 15.4294 2.64656 15.4571C2.65946 15.4848 2.68005 15.5082 2.70587 15.5246C2.73169 15.5409 2.76166 15.5496 2.79222 15.5494H4.39535C4.48977 15.5494 4.58017 15.5072 4.64245 15.4349L8.99178 10.2498L13.3411 15.4349C13.4014 15.5072 13.4918 15.5494 13.5882 15.5494H15.1913C15.3279 15.5494 15.4023 15.3907 15.3139 15.2862L10.0404 9.00028Z" fill="#202F8F"/>
</svg>
