<svg viewBox="0 0 22 23" fill="none" xmlns="http://www.w3.org/2000/svg">
<path d="M0.786133 2.875H21.2139C21.6386 2.875 21.9824 3.21882 21.9824 3.64355V19.3574C21.9824 19.7822 21.6386 20.125 21.2139 20.125H0.786133C0.361397 20.125 0.0175781 19.7822 0.0175781 19.3574V3.64355C0.0175781 3.21882 0.361397 2.875 0.786133 2.875ZM2.03906 3.79688L1.07324 5.03711L1.0625 5.05078L1.06445 5.05273H1.06543L1.0791 5.06445L1.75 5.58594V18.3936H20.25V5.58594L20.9229 5.06445L20.9375 5.05273L20.9268 5.03906L19.9609 3.79883L19.9502 3.78516H19.9482L19.9336 3.7959L18.8867 4.61035H3.11328L2.06641 3.7959L2.06348 3.79395L2.06152 3.79199L2.0498 3.78223L2.03906 3.79688ZM3.09473 4.6416L3.0918 4.64551H3.10059L10.9893 10.7773L11 10.7861L11.0107 10.7773L18.8965 4.64746V4.65039L18.9072 4.6416L19.9424 3.83594L20.8848 5.0459L20.2207 5.56348L11.8291 12.083C11.591 12.268 11.2976 12.3682 10.9961 12.3682C10.6948 12.3681 10.402 12.2678 10.1641 12.083L1.77637 5.56152L1.5498 5.38477L1.11523 5.0459L2.05762 3.83496L3.09473 4.6416Z" fill="#202F8F" stroke="#202F8F" stroke-width="0.0357143"/>
</svg>
