<svg viewBox="0 0 14 15" fill="none" xmlns="http://www.w3.org/2000/svg">
<path d="M4.625 2.375H4.5C4.56875 2.375 4.625 2.31875 4.625 2.25V2.375H9.375V2.25C9.375 2.31875 9.43125 2.375 9.5 2.375H9.375V3.5H10.5V2.25C10.5 1.69844 10.0516 1.25 9.5 1.25H4.5C3.94844 1.25 3.5 1.69844 3.5 2.25V3.5H4.625V2.375ZM12.5 3.5H1.5C1.22344 3.5 1 3.72344 1 4V4.5C1 4.56875 1.05625 4.625 1.125 4.625H2.06875L2.45469 12.7969C2.47969 13.3297 2.92031 13.75 3.45313 13.75H10.5469C11.0813 13.75 11.5203 13.3313 11.5453 12.7969L11.9313 4.625H12.875C12.9438 4.625 13 4.56875 13 4.5V4C13 3.72344 12.7766 3.5 12.5 3.5ZM10.4266 12.625H3.57344L3.19531 4.625H10.8047L10.4266 12.625Z" fill="#202F8F"/>
</svg>
