<svg  viewBox="0 0 12 13" fill="none" xmlns="http://www.w3.org/2000/svg">
<g clip-path="url(#clip0_736_12149)">
<path d="M6.55044 6.46116L5.50847 7.78973L4.95803 7.08795C4.948 7.07514 4.9352 7.06478 4.92058 7.05766C4.90596 7.05054 4.88991 7.04684 4.87365 7.04684C4.85739 7.04684 4.84134 7.05054 4.82672 7.05766C4.81211 7.06478 4.7993 7.07514 4.78928 7.08795L3.45267 8.79152C3.4403 8.80731 3.43263 8.82626 3.43053 8.84621C3.42843 8.86615 3.43198 8.88629 3.44078 8.90431C3.44958 8.92233 3.46328 8.93752 3.4803 8.94812C3.49732 8.95873 3.51699 8.96433 3.53705 8.96429H8.46428C8.55401 8.96429 8.60356 8.86116 8.54865 8.79152L6.72053 6.46116C6.71037 6.44834 6.69744 6.43797 6.68272 6.43085C6.66799 6.42373 6.65184 6.42003 6.63548 6.42003C6.61912 6.42003 6.60297 6.42373 6.58825 6.43085C6.57352 6.43797 6.56059 6.44834 6.55044 6.46116ZM3.96428 5.5625C3.96428 5.70458 4.02072 5.84084 4.12118 5.94131C4.22165 6.04177 4.35791 6.09821 4.49999 6.09821C4.64207 6.09821 4.77833 6.04177 4.8788 5.94131C4.97926 5.84084 5.03571 5.70458 5.03571 5.5625C5.03571 5.42042 4.97926 5.28416 4.8788 5.18369C4.77833 5.08323 4.64207 5.02679 4.49999 5.02679C4.35791 5.02679 4.22165 5.08323 4.12118 5.18369C4.02072 5.28416 3.96428 5.42042 3.96428 5.5625ZM10.5884 3.50804L7.70624 0.625893C7.62588 0.545536 7.5174 0.5 7.40356 0.5H1.71428C1.47722 0.5 1.28571 0.691518 1.28571 0.928571V12.0714C1.28571 12.3085 1.47722 12.5 1.71428 12.5H10.2857C10.5228 12.5 10.7143 12.3085 10.7143 12.0714V3.81205C10.7143 3.69821 10.6687 3.58839 10.5884 3.50804ZM9.72588 4.00893H7.20535V1.48839L9.72588 4.00893ZM9.74999 11.5357H2.24999V1.46429H6.29463V4.35714C6.29463 4.50633 6.3539 4.6494 6.45939 4.75489C6.56488 4.86038 6.70795 4.91964 6.85713 4.91964H9.74999V11.5357Z" fill="#1D2EB6"/>
</g>
<defs>
<clipPath id="clip0_736_12149">
<rect width="12" height="12" fill="white" transform="translate(0 0.5)"/>
</clipPath>
</defs>
</svg>
