<svg width="18" height="18" viewBox="0 0 18 18" fill="none" xmlns="http://www.w3.org/2000/svg">
<mask id="mask0_736_12233" style="mask-type:alpha" maskUnits="userSpaceOnUse" x="0" y="0" width="18" height="18">
<rect width="18" height="18" fill="#D9D9D9"/>
</mask>
<g mask="url(#mask0_736_12233)">
<path d="M1.31248 9.78729C1.16248 9.63729 1.0906 9.46229 1.09685 9.26229C1.1031 9.06229 1.18123 8.88729 1.33123 8.73729C1.48123 8.59979 1.65623 8.52791 1.85623 8.52166C2.05623 8.51541 2.23123 8.58729 2.38123 8.73729L5.56873 11.9248C5.71873 12.0748 5.7906 12.2498 5.78435 12.4498C5.7781 12.6498 5.69998 12.8248 5.54998 12.9748C5.39998 13.1123 5.22498 13.1842 5.02498 13.1904C4.82498 13.1967 4.64998 13.1248 4.49998 12.9748L1.31248 9.78729ZM9.26248 11.381L15.6375 5.00604C15.7875 4.85604 15.9625 4.78416 16.1625 4.79041C16.3625 4.79666 16.5375 4.87479 16.6875 5.02479C16.825 5.17479 16.8969 5.34979 16.9031 5.54979C16.9094 5.74979 16.8375 5.92479 16.6875 6.07479L9.78748 12.9748C9.63748 13.1248 9.46248 13.1998 9.26248 13.1998C9.06248 13.1998 8.88748 13.1248 8.73748 12.9748L5.54998 9.78729C5.41248 9.64979 5.34373 9.47791 5.34373 9.27166C5.34373 9.06541 5.41248 8.88729 5.54998 8.73729C5.69998 8.58729 5.8781 8.51229 6.08435 8.51229C6.2906 8.51229 6.46873 8.58729 6.61873 8.73729L9.26248 11.381ZM12.4312 6.09354L9.78748 8.73729C9.64998 8.87479 9.4781 8.94354 9.27185 8.94354C9.0656 8.94354 8.88748 8.87479 8.73748 8.73729C8.58748 8.58729 8.51248 8.40916 8.51248 8.20291C8.51248 7.99666 8.58748 7.81854 8.73748 7.66854L11.3812 5.02479C11.5187 4.88729 11.6906 4.81854 11.8969 4.81854C12.1031 4.81854 12.2812 4.88729 12.4312 5.02479C12.5812 5.17479 12.6562 5.35291 12.6562 5.55916C12.6562 5.76541 12.5812 5.94354 12.4312 6.09354Z" fill="#1D2EB6"/>
</g>
</svg>
