<svg viewBox="0 0 22 23" fill="none" xmlns="http://www.w3.org/2000/svg">
<path d="M2.35687 12.3027H9.82172C10.0277 12.3029 10.1965 12.4718 10.1967 12.6777V20.1426C10.1966 20.3486 10.0278 20.5174 9.82172 20.5176H2.35687C2.15084 20.5174 1.98195 20.3486 1.98187 20.1426V12.6777C1.9821 12.4718 2.15093 12.3029 2.35687 12.3027ZM12.1782 12.3027H19.643C19.849 12.3028 20.0178 12.4718 20.018 12.6777V20.1426C20.0179 20.3487 19.8491 20.5175 19.643 20.5176H12.1782C11.9722 20.5173 11.8032 20.3486 11.8032 20.1426V12.6777C11.8034 12.4719 11.9723 12.303 12.1782 12.3027ZM3.61566 18.8838H8.56293V13.9375H3.61566V18.8838ZM13.4379 18.8838H18.3842V13.9375H13.4379V18.8838ZM2.35687 2.48145H9.82172C10.0277 2.4816 10.1966 2.65046 10.1967 2.85645V10.3213C10.1966 10.5273 10.0277 10.6961 9.82172 10.6963H2.35687C2.15088 10.6961 1.98202 10.5273 1.98187 10.3213V2.85645C1.98202 2.65046 2.15088 2.4816 2.35687 2.48145ZM12.1782 2.48145H19.643C19.8491 2.48152 20.0179 2.65041 20.018 2.85645V10.3213C20.0179 10.5273 19.8491 10.6962 19.643 10.6963H12.1782C11.9722 10.6961 11.8033 10.5272 11.8032 10.3213V2.85645C11.8033 2.6505 11.9722 2.48167 12.1782 2.48145ZM3.61566 9.0625H8.56293V4.11523H3.61566V9.0625ZM13.4379 9.0625H18.3842V4.11523H13.4379V9.0625Z" fill="#202F8F" stroke="#202F8F" stroke-width="0.0357143"/>
</svg>
