<svg viewBox="0 0 32 32" fill="none" xmlns="http://www.w3.org/2000/svg">
<path d="M29.0393 6.23929L25.2357 2.43929C24.7714 1.97501 24.15 1.71429 23.4929 1.71429C22.8357 1.71429 22.2143 1.97144 21.75 2.43929L17.6536 6.52858C17.1893 6.99287 16.9286 7.61787 16.9286 8.27501C16.9286 8.93572 17.1857 9.55358 17.6536 10.0214L20.8536 13.225C20.1246 14.9235 19.0772 16.4668 17.7679 17.7714C16.4572 19.0893 14.925 20.1286 13.225 20.8643L10.025 17.6607C9.56072 17.1964 8.93929 16.9357 8.28215 16.9357C7.95802 16.9345 7.63691 16.998 7.33764 17.1225C7.03836 17.247 6.76695 17.43 6.53929 17.6607L2.43929 21.75C1.97501 22.2143 1.71429 22.8393 1.71429 23.4964C1.71429 24.1572 1.97144 24.775 2.43929 25.2429L6.23929 29.0429C7.03215 29.8357 8.12501 30.2893 9.24644 30.2893C9.47858 30.2893 9.70358 30.2714 9.93215 30.2322C14.6607 29.4536 19.3536 26.9357 23.1429 23.15C26.9286 19.3572 29.4429 14.6643 30.2286 9.93215C30.4536 8.58929 30.0036 7.20715 29.0393 6.23929ZM27.6964 9.50715C27 13.7179 24.7357 17.9179 21.325 21.3286C17.9143 24.7393 13.7179 27.0036 9.50715 27.7C8.97858 27.7893 8.43572 27.6107 8.05001 27.2286L4.31787 23.4964L8.27501 19.5357L12.5536 23.8214L12.5857 23.8536L13.3572 23.5679C15.6962 22.7079 17.8202 21.3496 19.5821 19.5871C21.344 17.8246 22.7016 15.7001 23.5607 13.3607L23.8464 12.5893L19.5322 8.27858L23.4893 4.31787L27.2214 8.05001C27.6072 8.43572 27.7857 8.97858 27.6964 9.50715Z" fill="#202F8F"/>
</svg>
