<svg viewBox="0 0 12 12" fill="none" xmlns="http://www.w3.org/2000/svg">
<g clip-path="url(#clip0_736_12194)">
<path d="M6.00039 0.6875C7.82512 0.687708 9.30304 2.16644 9.30312 3.99121C9.30312 5.09283 8.7639 6.06948 7.93398 6.66895L7.91054 6.68652L7.93691 6.69922C7.94049 6.701 7.94415 6.70218 7.94667 6.70312C7.94932 6.70412 7.95089 6.70524 7.95253 6.70605H7.95351C8.54952 6.95827 9.09109 7.32413 9.54824 7.78223C10.0068 8.23903 10.3727 8.78066 10.6244 9.37695C10.8725 9.96261 11.0046 10.583 11.018 11.2207V11.2217C11.0182 11.2333 11.0163 11.245 11.0121 11.2559C11.0078 11.267 11.0009 11.2776 10.9926 11.2861C10.9843 11.2946 10.9742 11.3011 10.9633 11.3057C10.9523 11.3103 10.94 11.3125 10.9281 11.3125H10.1254C10.0761 11.3125 10.0367 11.2748 10.0355 11.2256C10.0086 10.1872 9.59187 9.21465 8.85488 8.47754C8.09225 7.71491 7.07909 7.29502 6.00039 7.29492C4.92162 7.29492 3.9086 7.71492 3.14589 8.47754C2.40876 9.21467 1.99119 10.1871 1.96425 11.2256C1.96314 11.2734 1.92434 11.3123 1.87539 11.3125H1.07167C1.05976 11.3125 1.0475 11.3103 1.03652 11.3057C1.02563 11.301 1.01548 11.2946 1.00722 11.2861C0.9989 11.2776 0.99302 11.267 0.988667 11.2559C0.984389 11.2449 0.981593 11.2334 0.981831 11.2217V11.2207C0.994138 10.587 1.12766 9.9613 1.37539 9.37793C1.62762 8.78192 1.99345 8.24035 2.45156 7.7832C2.91194 7.32152 3.4485 6.9602 4.04628 6.70801L4.04726 6.70703C4.04883 6.70625 4.05068 6.706 4.05312 6.70508C4.05564 6.70413 4.05931 6.70197 4.06289 6.7002L4.08925 6.6875L4.06581 6.66992C3.23596 6.06911 2.69667 5.09277 2.69667 3.99121C2.69675 2.16632 4.17547 0.6875 6.00039 0.6875ZM6.00039 1.66992C5.38091 1.66992 4.7974 1.91197 4.35878 2.35059C3.92035 2.78914 3.67816 3.3719 3.67812 3.99121C3.67812 4.61068 3.92017 5.1942 4.35878 5.63281C4.79738 6.07135 5.38097 6.3125 6.00039 6.3125C6.61961 6.3124 7.20251 6.07119 7.64101 5.63281C8.07962 5.1942 8.32167 4.61068 8.32167 3.99121C8.32164 3.37185 8.07951 2.78915 7.64101 2.35059C7.20249 1.91206 6.61972 1.67002 6.00039 1.66992Z" fill="#1D2EB6" stroke="#1D2EB6" stroke-width="0.0357143"/>
</g>
<defs>
<clipPath id="clip0_736_12194">
<rect width="12" height="12" fill="white"/>
</clipPath>
</defs>
</svg>
