<svg viewBox="0 0 11 13" fill="none" xmlns="http://www.w3.org/2000/svg">
<path d="M10.4708 3.25871L7.34846 0.136384C7.26141 0.0493304 7.14389 0 7.02056 0H0.857169C0.600361 0 0.392883 0.207478 0.392883 0.464286V12.5357C0.392883 12.7925 0.600361 13 0.857169 13H10.1429C10.3997 13 10.6072 12.7925 10.6072 12.5357V3.58806C10.6072 3.46473 10.5578 3.34576 10.4708 3.25871ZM9.53641 3.80134H6.80583V1.07076L9.53641 3.80134ZM9.56253 11.9554H1.43753V1.04464H5.81922V4.17857C5.81922 4.34019 5.88342 4.49518 5.9977 4.60946C6.11198 4.72374 6.26698 4.78795 6.4286 4.78795H9.56253V11.9554ZM5.38396 8.03795H2.71431C2.65047 8.03795 2.59824 8.09018 2.59824 8.15402V8.85045C2.59824 8.91429 2.65047 8.96652 2.71431 8.96652H5.38396C5.44779 8.96652 5.50003 8.91429 5.50003 8.85045V8.15402C5.50003 8.09018 5.44779 8.03795 5.38396 8.03795ZM2.59824 6.1808V6.87723C2.59824 6.94107 2.65047 6.9933 2.71431 6.9933H8.28574C8.34958 6.9933 8.40181 6.94107 8.40181 6.87723V6.1808C8.40181 6.11696 8.34958 6.06473 8.28574 6.06473H2.71431C2.65047 6.06473 2.59824 6.11696 2.59824 6.1808Z" fill="#1D2EB6"/>
</svg>
